<svg width="18" height="18" viewBox="0 0 18 18" fill="yellow" xmlns="http://www.w3.org/2000/svg">
<path fill-rule="evenodd" clip-rule="evenodd" d="M1.31245 -3.05176e-05H6.93746C7.66132 -3.05176e-05 8.25005 0.588699 8.25005 1.31242V4.68742C8.25005 5.41129 7.66132 6.00002 6.93746 6.00002H1.31245C0.58873 6.00002 0 5.41129 0 4.68742V1.31242C0 0.588699 0.58873 -3.05176e-05 1.31245 -3.05176e-05ZM1.31245 6.99997H6.93746C7.66132 6.99997 8.25005 7.5887 8.25005 8.31256V16.1876C8.25005 16.9113 7.66132 17.5 6.93746 17.5H1.31245C0.58873 17.5 0 16.9113 0 16.1876V8.31256C0 7.5887 0.58873 6.99997 1.31245 6.99997ZM16.1876 11.5H10.5626C9.83873 11.5 9.25 12.0887 9.25 12.8126V16.1876C9.25 16.9113 9.83873 17.5 10.5626 17.5H16.1876C16.9113 17.5 17.5 16.9113 17.5 16.1876V12.8126C17.5 12.0887 16.9113 11.5 16.1876 11.5ZM10.5626 -3.05176e-05H16.1876C16.9113 -3.05176e-05 17.5 0.5887 17.5 1.31242V9.18743C17.5 9.91129 16.9113 10.5 16.1876 10.5H10.5626C9.83873 10.5 9.25 9.91129 9.25 9.18743V1.31242C9.25 0.5887 9.83873 -3.05176e-05 10.5626 -3.05176e-05Z" fill="yellow"/>
</svg>
