<svg width="20" height="20" viewBox="0 0 20 20" fill="none" xmlns="http://www.w3.org/2000/svg">
<path d="M13 3C13 4.65685 11.6569 6 10 6C8.34315 6 7 4.65685 7 3C7 1.34315 8.34315 0 10 0C11.6569 0 13 1.34315 13 3Z" fill="#F1DC67"/>
<path d="M12 10C12 11.1046 11.1046 12 10 12C8.89543 12 8 11.1046 8 10C8 8.89543 8.89543 8 10 8C11.1046 8 12 8.89543 12 10Z" fill="#F1DC67"/>
<path d="M10 20C11.6569 20 13 18.6569 13 17C13 15.3431 11.6569 14 10 14C8.34315 14 7 15.3431 7 17C7 18.6569 8.34315 20 10 20Z" fill="#F1DC67"/>
<path d="M20 10C20 11.6569 18.6569 13 17 13C15.3431 13 14 11.6569 14 10C14 8.34315 15.3431 7 17 7C18.6569 7 20 8.34315 20 10Z" fill="#F1DC67"/>
<path d="M3 13C4.65685 13 6 11.6569 6 10C6 8.34315 4.65685 7 3 7C1.34315 7 0 8.34315 0 10C0 11.6569 1.34315 13 3 13Z" fill="#F1DC67"/>
</svg>
