<svg id="Layer_1" data-name="Layer 1" xmlns="http://www.w3.org/2000/svg" viewBox="0 0 512 512"><defs><style>.cls-1{fill:#707070;}</style></defs><title>woman-1-handdrawn</title><path class="cls-1" d="M120.85,296.52c-.1-4,.34-13.85,1.36-32.17l3.61-65.89,1.78-33.09.82-15.92.19-3.89.58-3.77,1.14-7.53A122.83,122.83,0,0,1,148,89.95a56.74,56.74,0,0,1,7-9.51c1.25-1.36,1.11-.84-.89,2.11l-2,2.91-2.55,4.36c-5.86,9.05-9.77,19.21-13.33,29.5-2.86,10.6-5.25,21.25-5.48,32.94l-1.82,23.3-1.32,24.56c.16,0,.19,2.84.5-.66,1-11.68,1-8.5-.24,15.89-1.66,31.72-3.12,65.53-5.14,94.63-.55,6.34-.51,11.09-.69,10.32l-.55-4.5c-.08-1.93-.16-3.93-.24-6ZM186.31,44.43l8.1-4.64a89.82,89.82,0,0,1,11.06-5.07c2.15-.86,9.39-3.53,18.3-6.31,9-2.5,19.84-4.62,28.77-5,3.79-.13,7.16-.39,10.2-.44l8.12.36a97.16,97.16,0,0,1,11.42.86c3.1.38,7.15.51,11.64,1.71A101.44,101.44,0,0,1,309,30a82,82,0,0,1,12,4.86l6.83,3.26,4.46,2.75c25.42,15.08,44.88,38.94,54.71,60.7l-3-7.52c-1.08-2.35-2.3-4.48-3.31-6.5l-3.13-6.17-3.57-5.68C364.39,62.59,349.06,48.6,334.3,39.8c-10.55-6.7-20.36-10.37-29.59-13.56-4.69-1.38-9.34-2.37-14-3.58l-14.51-2.12c-30-2.42-62.68,3.87-91,23.08-2.14,1.57-6.5,5.29-8.91,7.34-1.11,1,.38.07,3-1.74C181.34,47.88,183.65,46,186.31,44.43Zm271.2,421.32A32.42,32.42,0,0,1,455.35,480a31.79,31.79,0,0,1-27.29,20c-3.7.26-4.38.2-3.38.41,3.9.62-17.41.69-32.24.85l-123.25.87L168,502.57l-21.48,0-43.79-.15a50.06,50.06,0,0,1-11.79-.94,34.15,34.15,0,0,1-11.4-5A34.64,34.64,0,0,1,65.3,476.08a31.18,31.18,0,0,1-.81-9.4c.24-3.22.46-6.23.55-7.39.45-4.39.75-5.3,1.17-8l1.51-9.66A82.29,82.29,0,0,1,70,430.31,50.22,50.22,0,0,0,68.75,437c.62-4.3,2-8.29,2.85-12.24l1.47-5.81,2-5.49c1.33-3.6,2.52-7.17,3.91-10.59l4.75-9.89a73,73,0,0,1,5.25-9.43c1.93-3,3.69-6.21,5.8-9.2,3.56-4.6,7-9.47,11.07-14.1a85.42,85.42,0,0,1-5.25-11.06c-1.29,1.37-2.64,2.68-3.88,4.1l2.19-2.68c.51-.59,1.06-1.15,1.58-1.73a81.3,81.3,0,0,1-5.26-23c-.5-3.9-.17-8-.19-12l.59-10.36,1.17-21.33c.76-14.4,1.52-29,2.27-43.16l2.51-50,1.24-25,.64-13a93.82,93.82,0,0,1,1.23-13.52c5.51-42.19,29.3-81.68,63.79-106.67,1.65-1.21,3.33-2.53,5.1-3.75L179,23.7c3.65-2.16,7-4.48,10.06-5.82A155.92,155.92,0,0,1,312.7,8.64L324.11,13l13.44,6.56c4.52,2.7,9.19,5.54,13.74,8.43,4.3,3.26,8.62,6.38,12.49,9.54a14.42,14.42,0,0,0-1.42-1.41c2.68,2,4.6,3.72,7,5.65A71.79,71.79,0,0,1,378,49.87a151.78,151.78,0,0,1,33.84,55.32,94.59,94.59,0,0,1,3.85,12.71A115.15,115.15,0,0,1,419,133.45l1.25,8.5c.35,2.87.34,5.74.52,8.65l.78,16.89-1.11-5.9c3.09,61.18.94,36.49.09,34,1.3,23.43,2.49,44.8,3.66,65.75l2.56,49.57a118.5,118.5,0,0,1,0,13.52l-.76,6.89L424.52,338a82.8,82.8,0,0,1-8.4,20.53c1.11,1.24,2.31,2.42,3.38,3.7l-1.66-1.69c3.73,4,6.55,8.76,10,13.12a167.78,167.78,0,0,1,23.71,50.54c1,4.56,2.62,9,3.2,13.65l2.07,13.88ZM187.44,33.49a3.86,3.86,0,0,0,.69-.29c42.29-25.32,97.53-26.7,141.12-3.74A156.14,156.14,0,0,1,365.76,56a147.56,147.56,0,0,1,18.67,23.38c2.69,4.69,3.09,5.8,1.77,4.35A135.51,135.51,0,0,1,403,122.61l1.72,6.5c.51,2.2.76,4.48,1.16,6.74a93.44,93.44,0,0,1,1.62,13.79c2.28,42.89,4.62,81,7,118.6L417,313.14a71.73,71.73,0,0,1-7.72,38.1c1.37,1.36,2.68,2.78,4,4.18a72.56,72.56,0,0,0,6.59-18c1.59-8.06,1.18-12.54.64-8.78-.49,2.72-.68,2.75-.61.66a113.51,113.51,0,0,0,.24-12.17l-2.8-47.87L413.9,204c-.26-4.7-.69-9.69-1-12.68-.5-5.45-1.4-18.55-2.32-33.28-.16-15-3.5-31.43-6.81-43l-4.35-12.26C393,88.28,393.92,87.83,380,69.1l5.24,7.64,4.44,7.94c3.13,5.07,4.94,10.55,7.11,15.21,1.58,3.59.83,2.94,1.18,4.21a158.11,158.11,0,0,0-22.83-38.29c-3.47-3.77-6.61-7.66-10-11a149.07,149.07,0,0,0-37.61-26.7C324,26.5,320.68,24.52,317,23.28l-10.88-4c-7.46-1.95-14.89-4.11-22.58-5-30.52-4.7-62.38,1-89.66,15.33A68.15,68.15,0,0,0,187.44,33.49Zm-66.2,87A139.38,139.38,0,0,1,131.7,93.26l.33-.59c-1.8,4.06-4.23,7.86-8.32,20.14l3.45-9.25c1.07-2.73,2.37-5,3.32-7.05a96.4,96.4,0,0,1,4.82-9.3c3.17-5.33,6-10.43,9.57-14.92,1.71-2.28,3.27-4.66,5.09-6.83l5.67-6.41C146.07,68.2,127.92,92.36,121.24,120.52Zm-7.69,215.29c2.57-2.29,5.17-4.53,7.79-6.66,24.26-19.59,54.88-32.24,85.39-36.47,0-2.09,0-4.34,0-6.91s0-5.31-.07-8.15a54,54,0,0,1-5.83-4.52l-1.49-.75a67,67,0,0,1-6.85-6.35,92.33,92.33,0,0,1-7.72-8.74l3.08,3.49c.06-.42-1.2-2.39.59-.55a123.92,123.92,0,0,0,11.15,10.68,52,52,0,0,0,7.06,5.36c0-1.25,0-2.49,0-3.73a33,33,0,0,0,9,3.84c0,1.4,0,3.06,0,4.9l4.69,2.39c11.29,4.47,7.82,2.31,8.7,2.16.31-.07-.23-.49-.43-.85-.63-.4-3.75-1.44-8.88-4.28,2.76,1.59,5.38,2.31,7.74,3.35a53.11,53.11,0,0,0,7.42,2.46l-1,0a52.51,52.51,0,0,0,7,2,80.32,80.32,0,0,0,11.78,1.37c1.92.07,3.77.24,5.52.21l4.84-.33c7.79-.76-9.29-.25-21.86-3.66a89.72,89.72,0,0,1-23-9.07c-3.75-1.83-7-4.46-10.5-6.74-3.17-2.71-6.56-5.15-9.39-8.23l-3.62-3.64-3.31-4a81.14,81.14,0,0,1-6.21-8.6A94.78,94.78,0,0,0,207.79,270l.07-.13c-2.74-2.45-5.79-4.56-8.29-7.25a64.69,64.69,0,0,1-6.52-7,46.31,46.31,0,0,1-4.45-6.06,125.14,125.14,0,0,1-9.82-17.59,61.24,61.24,0,0,1-3.33-8.36,63.88,63.88,0,0,1-2.63-9.12,56.76,56.76,0,0,1-1.51-8.76,34.5,34.5,0,0,1-.4-7.17c.08-3,.53-.51.81-.53-.31-4.42-.26-9.31-.25-14.62V165.32l2.08,15.88.14-6.6c.1,9.83.37,12.31.66,14.34.14,1,.29,1.92.43,3.57s.43,3.69.67,7.33l-.17-7.47c.05-2.48.1-4.81.15-7.39l.41,7.16c.16,1.75.41,2.33.55,1,.31-2.06,1,6.56,1.79,9.29.34,1.1.21-1.2.48-.6a14.68,14.68,0,0,1,1.31,4.61c1.33,7.09,2.62,10.24,6.33,20.91l2.16,4.88c8.76,16.25,21.4,29.54,37.56,38,10.17,5.55,23.32,8.64,35.74,8.58l5.52-.06,5.46-.64c3.68-.2,7.16-1.43,10.75-2.07,6.94-2.17,13.86-4.63,20.11-8.52a83.32,83.32,0,0,0,33.91-36.94c1.54-2.89,2.57-6.58,3.56-9A104.3,104.3,0,0,0,345,195.29c.06-10.51.24-20.53.51-28.16a31.15,31.15,0,0,0,0-4,14.59,14.59,0,0,0-.85-3.76,16.8,16.8,0,0,0-4.58-6.86l.26.49a28.08,28.08,0,0,0-4.75-2.39,16.75,16.75,0,0,0-3.77-1.12,15.27,15.27,0,0,0-2-.21l-1-.07h-1.91c-5.09,0-10.23-.11-15.31-.28-7.21-.23-19-.27-30-.41l3-.8c-31.26-.13-18.63-1-17.34-1.7l-33.6.2-25.32,0L196,146.08a21.79,21.79,0,0,0-7.37,1c-2.06.47-6.6,3.49-8.54,6.32a20,20,0,0,0-4.08,8.29,19,19,0,0,1,1.33-5.4,32.1,32.1,0,0,0-2.5,6.41c-.31.92-.62.18-.12-3.11.24-1.52-.39.1-.48-.26s-.15-1.54.85-4.11A20.79,20.79,0,0,1,185,144.62a29.77,29.77,0,0,1,10.75-3.21c3.82-.33,5.91-.73,4.11-1-5.22-.73,9.87-1.42,29.83-1.39L263,139c2.4,0,4.95-.18,6.48-.3,5.56-.42,26.8-.84,38.79-.75l6.49.13c4,.24,6,.36,8.37.36s5.51-.39,10.54.15c-2.64-.8-5.51-.87-8.59-1.13l-8.43-.66a4.06,4.06,0,0,1-2.19-.57h11.31a35.17,35.17,0,0,1,10.85,1.1,28,28,0,0,1,6.55,2.89,29,29,0,0,1,13.48,17.09,35.86,35.86,0,0,1,1.17,11.21l0,11.68c0,7.78.21,15.62-.35,23.26-.13,3.85-1,7.61-1.53,11.43-.92,3.72-1.8,7.49-3,11.14l-1.27,3.53c.09-.12.17-.16.23-.31a100.9,100.9,0,0,0,6.29-36.18l0-18.65c-.09-6.24.55-12.5-1.43-18.24a29.38,29.38,0,0,0-14-16.7,32.85,32.85,0,0,0-14.14-3.73c-2.73-.14-3.33-.37-2.35-.74l-21.64.35-13.95.15c-21.85.06-41.3.36-60.49.74l-22.9.13c-6,.19-12.18-.37-17.71.69A29,29,0,0,0,175,145.25a30.46,30.46,0,0,0-8,16.51c-.43,3.51-.64,4.46-.92,2.7a42.93,42.93,0,0,1-.77-6.42c2.26-9.14,7.05-13.7,4.94-12.19A31.79,31.79,0,0,1,184,135.46a32.63,32.63,0,0,1,8.41-2.05c2.95-.22,5.61-.17,8.33-.19l32.44-.1-1.39.09,9.71.18h74.84c11.32,0,14.65.13,13.39-.22s1.55-.65,5.83.06a33,33,0,0,1,26.66,31.33q.07,4.6.14,9.25c-.05,12.24.92,24.78-1,37.78-2.71,20.59-13.65,40.88-27.48,55.09a38.46,38.46,0,0,1-3.33,3.28c0,2-.07,4-.15,6,0,.65,0,2,0,3.45,13.16-10.58,20.79-21,16.92-14.81a31.58,31.58,0,0,1-3.39,4.24,110.63,110.63,0,0,1-13.51,13c0,2,.07,3.87.12,4.74.27,4.7.59,8.76.93,11.37a79,79,0,0,1,.39,9.85A168.29,168.29,0,0,1,406.88,349a69,69,0,0,0,6.66-23c1-10.24-.38-21-.75-31.57l-1.72-31.75.24,2.72-.82-19-3.4-64.84-1.68-32.34a148.32,148.32,0,0,0-5.65-31.53c-1.79-5.35-3.78-10.92-5.86-15.88-2.43-4.95-4.2-9.13-6-12.29l-4.4-7.2c-2.09-3.44-2.73-4.16-2.19-3.06,1,2-2-2-6.73-8a144.52,144.52,0,0,0-18.41-19.06C339.33,37.27,318,26.51,295,21.11c-23-5.63-47.71-4.67-70.69,1.68A142.78,142.78,0,0,0,173,49.37,138.73,138.73,0,0,0,137.36,93.2l-5.06,10.6c-1.54,3.9-3,8-4.39,11.83a147.27,147.27,0,0,0-5.51,24.27,82.94,82.94,0,0,0-1.18,12.37l-.7,12.58-2.74,52c-.22,4.62-1,15.75-1.22,18.38-.49,5-.8,6.08-1.24,9.15l-1.41,24.5c0-2.17.09-3.94.17-7.79l-2.66,53.58A72.72,72.72,0,0,0,113.55,335.81Zm214.84-54.86c0-1.74,0-3.49,0-5.46,0-1.19,0-2.44,0-3.69l-2.79,2.35.14,8.77C326.66,282.27,327.53,281.61,328.39,280.95Zm-19.75,37.18c0-3.65,0-7.34,0-10.93,0-4.13.12-8.09.22-11.74a96.48,96.48,0,0,1-10.76,3.86l-6,1.91c-2.47.79-5.3,1.26-7.65,1.81.05.15-1.53.68.47.37,3.35-.52,4.6-.65,3.27-.26-.66.2-2,.52-4,1a52.1,52.1,0,0,1-8.26,1.39c-18.19,2.35-38.56.16-54.1-7-3.1-1.41-6.63-3.14-6-3,4.06.85,8.74,2.47,14.07,3.17,1.13.19,3,.69,5.91,1.5,2.94.49,6.84,1.51,12,2.24a108.32,108.32,0,0,0,61.1-9.6c.06-1.7.12-3.34.19-4.83,0-.93.08-2,.11-3.22a101.26,101.26,0,0,1-35.52,11l-5.25.5c-2,.06-3.78-.07-4.48-.1a35.94,35.94,0,0,1-4.84-.74,106.87,106.87,0,0,1-11.79-1.17c.79.07,1.67.08,3.07.14-10.34-1.29-19.1-3.51-27-7.18a55.89,55.89,0,0,1-7.94-4c0,.55,0,1-.05,1.58,0,.88,0,3.32,0,4.75.05,6.68.1,13.22.15,19.74l0,9.76c0,2.31,0,1.72,0,1.82l-.05.14.06.1,0,.06s0,0,.08.07l1,.62c8.83,5.48,19,11.6,28.59,17.3l12,7.13,4.74,2.78.21.06.14-.12.08-.07,2.45-1.48L304.08,324,308,321.6l.75-.46,0,0,0-.06,0-.12-.08-.1,0,0Zm-20.76,30.58-7.21,4.51,9.49-5.53,11.43-7.34c-4.64,2.42-14.34,8.29-23.71,14.36l9.76-5.9Zm-67.11-10.5-.8-.1,4.9,2.94c5.45,2.85,11.4,6,15.57,8,5.58,2.71-5.61-4.8-14.52-10.21L205.6,326.6v-5.67c-1.77.35-3.62.76-5.6,1.24a41.42,41.42,0,0,0,.28,6.59,5.52,5.52,0,0,1,.07.81c1.67.81,6.5,3.56,9.36,5.1,8.16,4.42,5.83,2.37,6.59,2.24.27-.05-.07-.47-.15-.81l-6.48-4.16Zm-111.87,20c.91,1.75,1.87,3.45,2.9,5.1l.23-.26c-.19-.28-.4-.55-.59-.83-.92-1.28-1.7-2.68-2.52-4Zm3.41-20.48c-1.4,1.22-2.76,2.49-4.12,3.75a73.12,73.12,0,0,0,4.48,10.76c1.24-1.31,2.49-2.64,3.87-3.91a56.93,56.93,0,0,1-4-9.62C112.49,338.44,112.41,338.1,112.31,337.78Zm0,25.75-.1-.14-.24.26.1.14Zm3.85-4.23-.1-.14-.11.12.1.14Zm-.42-.32.1-.11,0,0-.09.12Zm4.63-4.07-.15-.25c-1.34,1.33-2.56,2.77-3.85,4.15l.09.15Q118.39,356.87,120.4,354.9Zm-.21-.35c-1.34-2.14-2.23-3.77-3-5-1.38,1.34-2.7,2.68-3.94,4,.91,1.71,1.92,3.36,3,5C117.5,357.14,118.85,355.85,120.2,354.55Zm-7.91,17.56c.27-.34.55-.64.83-1l0-.06C112.82,371.44,112.52,371.75,112.29,372.11Zm1.83-2.1c1.72-1.83,3.59-3.49,5.59-5.78,3.86-4.64,8.67-8.48,13.16-12.71,2.18-2.19,4.87-3.79,7.27-5.72s4.84-3.84,7.46-5.43l9.34-5.72c3.05-2,6.49-3.28,9.73-5,2-.93,3.92-1.92,5.93-2.79l6.21-2.19,1.5-.77c-12.77,4.13-24.55,10.8-35.75,18.11-5.36,4-10.92,7.82-15.72,12.54-5.19,4.29-9.56,9.41-14.11,14.35-.19.21-.34.46-.52.68Zm70.74-53.2,7.68-2c2-.52,4.12-1.07,6.19-1.58,0-2.37,0-5,0-8.08l.12,3.48c.32-.21.61-2,.81,0,.07.7.14,2.36.19,4.33l.56-.14,5.18-.8c0-4.54.06-9.11.09-13.91l.12,13.88.32,0c0-3.89.1-7,.32-9.78.14-1.77.21-4.17.24-7.12a196.41,196.41,0,0,0-29.35,6.54,43.11,43.11,0,0,1,5.53-2.14,41.43,41.43,0,0,0-5.65,1.81,187.94,187.94,0,0,0-43.83,20.31,222.52,222.52,0,0,0-19.68,14.95,67.79,67.79,0,0,0,3.91,10.9l4.14-3.76c4-4,9.22-7.48,15.21-12l-6.13,4.73c.57,0,3.83-2.11.53.61a163.94,163.94,0,0,0-13.23,11.61c.85,1.77,1.77,3.53,2.8,5.25,1.27-1.21,2.49-2.47,3.81-3.63,2.2-1.93,4.25-4,6.57-5.82l7.09-5.29c4.6-3.77,10-6.49,15.25-9.76A157,157,0,0,0,121,353.93l.14.26c.75-.7,1.49-1.42,2.28-2.08l6.46-5.87c2-1.8,4.21-3.19,6.12-4.65,3.9-2.82,7.23-5.44,10.7-7.17,6.14-3.48,16.09-9.68,31.09-15Zm27.06-24.18c0-2.13.06-4.29.1-6.43l-.2-.82L211.5,322l.16.53A8,8,0,0,0,212,321c0-5.76,0-11.74,0-17.62C212,299.75,211.94,296.21,211.92,292.64Zm-6,28.23,0,2.75.14-.05,0-2.73ZM332,261.76l3.07-3.37,2.61-3.5a61.06,61.06,0,0,0,4.81-7.07c-3.78,5.49-12.76,17.13-24.39,25.68a46.59,46.59,0,0,0,6-4.71c1.78-1.62,3.64-3,5.21-4.7l.27-.21c-1.46,1.7-3.27,3-8.07,7.4l6.79-5.73C330,264,331.1,262.69,332,261.76Zm-16.75,70.35c.12,0,.19,0,.29-.05l6.28-3.74q.05-20.06.1-40.14l-.45.32.14,39.71-4.08,2.47Zm6.67-46.52q0-3.16,0-6.32c0-.75,0-1.51,0-2.27l-.5.35,0,8.55ZM208.32,262.48A87.49,87.49,0,0,1,187.08,237a44.53,44.53,0,0,1-3.27-6.74l-.58-.79A90.8,90.8,0,0,0,211,265.37c.6.46,1.31.78,2,1.18C211.27,265.39,210.16,264,208.32,262.48ZM106.1,333.59A69.1,69.1,0,0,0,108,341q2-2,4.12-3.87a77.89,77.89,0,0,1-2.63-14.17c-.47-11.66.08-15.74-.28-16.91-.19-1.21-.54.35-.75-.41-.15-.53-.4.75-.69,1.37.11,1.47-1.12,7.89-.2,19.85a54.38,54.38,0,0,1-.54-9c-.09-2.87.09-5.47.19-8.05l.66-15.64.22,1.9.76-14.56c.43-15.65.89-32.74,1.21-44.56.28-15.75-2.2,18.48-3.66,45L105,307.19C104.44,315.4,104.21,324.85,106.1,333.59Zm3.32,32.49c-1.09-1.61-2.13-3.26-3.11-4.94l-1.43,1.59a50.44,50.44,0,0,0-3.39,4.85c-.55.9-2.77,4-5.45,7.74-2.48,3.86-5.08,8.56-7.19,12.12-8.94,18.25-5.18,12.61-5.38,13.92,0,.47.61-.44,1.08-.82L86.81,396a75.5,75.5,0,0,1,5.68-10.09,99.81,99.81,0,0,0-6.55,12.69l-2.76,5.9c-.87,2-1.5,4.14-2.31,6.33l.25-1.62c-1.42,4-3.79,10-4.16,11.64-3.24,12.89-5.61,27.25-5.42,37.22-.06,6.64.45,2.73,1.11-5.56l2.51-14.83c1.14-5.49,2.93-11.19,4.24-16.58A167.32,167.32,0,0,1,109.42,366.08Zm91.91,131.34c-11.4-.31-36.17-.27-60.54.11l24.9,0,.57,0-18.57.15,24,.14Zm23.08-12.76,19.09-.07c32.26-.43,74-.26,99.63.29l46.25.35-1.56-.19c5.26-.24,8-.6,16.33-.68l12.52-.08H423c1,0,2.36,0,3,0s1.15,0,1.71-.11a17,17,0,0,0,11.55-6.74,16.35,16.35,0,0,0,2.41-5,12.88,12.88,0,0,0,.55-3.23l.07-.87-.06-1.41q-.07-1.47-.14-3c-.26-4-.2-8.26-.69-12.5l-1.85-12.74L441,443.1c-.63-6-2.29-10.8-3.16-14.8L436.54,423l-1.41-4c-1.6-4.68-2.16-6.66-2.17-7.15,0-1,2.2,4,2.89,4.8a157.63,157.63,0,0,0-26-45.46c-16.87-20.06-40-36.67-61.39-45-2.39-.89-6.59-2.53-11.22-4.08l-5.56-1.43c0,5.06-.08,10.27-.24,13.15a24.15,24.15,0,0,1-2.91,1.4c-.79.28-3.77,1.88-7.18,3.74L317.41,341l-3.14,1.6c-1.17.58-1.87.81-1.41.39,1-.89,2.88-2.3,3.74-3L329,332.43c-.1-8.47-.19-16.34-.28-23.93-.08-.5-.13-1-.23-1.51l.22.06c0-2.13,0-4.26-.07-6.35-.1-5.88-.25-11-.29-17.17-.83.65-1.74,1.23-2.59,1.86.19,12.06.38,24.34.57,36.73,0,2.9,0,5.82.07,8.84l-18.8,11.45-16.5,10.21-8.41,5.09-20.55,12.14-10.07-6.1-8.28-4.89c-1.57-.91-5.23-3.29-6.06-3.93a21.19,21.19,0,0,1-2.7-2.5l-8.18-5,2.74,1.36-18.11-10.68L199,330.36c0-2.51.07-5.19.1-8-4.4,1.09-9.57,2.53-16.44,4.55l-8.94,3.23a160.32,160.32,0,0,0-40.78,26.06,145.09,145.09,0,0,0-30.74,37.19l-2.08,3.34-1.74,3.59-3.58,7.33c-2.35,5-3.95,10.39-6,15.66-1.34,5.5-3,11-4.08,16.57l-1.27,8.41a49.3,49.3,0,0,0-.87,8.36L82,466.58a18.31,18.31,0,0,0,.07,3.61,20.06,20.06,0,0,0,.61,2.88,16.91,16.91,0,0,0,7.08,9.1,16,16,0,0,0,5.38,2.18,18.73,18.73,0,0,0,2.91.31c.32,0,1.34,0,2.23,0H103l21.52,0Zm230.91-21.4-.66-11.81c-4.29-36.41-19.21-67.2-40.81-90.76l-5.91-6.4c-2.14-2.21-4.65-4.27-7.06-6.52-4.71-4.64-10.37-8.54-15.5-12.39a160.61,160.61,0,0,0-53.63-24.19c0,1.81,0,3.74,0,5.72,3.87,1,8.16,2.19,13.2,4,7.87,2.46,15.9,6.38,21.63,8.72,5.51,2.76,8.56,4.3,6.21,2.53-3.44-2.53.15-.75,8.15,3.8,3.78,2.6,8.63,6,14,10.15,5,4.54,11,9.47,16.25,15.76a164,164,0,0,1,29,45.92c1.35,3.69,3,7.55,3.93,9.88,1,2.07,2.06,5.82,3.35,10.52l2.12,7.68,1.47,8.82c1.28,6.08,1.51,12.61,1.84,18.81a29.32,29.32,0,0,1-2.08,15.73,27,27,0,0,1-5.59,8,29.24,29.24,0,0,1-10.72,6.33A30.42,30.42,0,0,1,428.2,495c-2.43.26-6.36.23-11.18.36l7.78.34a31.21,31.21,0,0,0,7-.37,29.24,29.24,0,0,0,12-5.16,15.56,15.56,0,0,1,2.92-2A28.86,28.86,0,0,1,431,496.73c-5.9.92-12.48.33-18.72.5l-12.62-.15-157.15.24-6.38.06a2.83,2.83,0,0,0,.63.11l125.42.14,38.58-.07,25.5.14c4.48,0,5.5-.33,3.95.4a29.94,29.94,0,0,0,24.71-23.41A38.18,38.18,0,0,0,455.32,463.25Zm-352.89,46.3H98.89c-1.42,0-3.16-.11-4.72-.25a42.1,42.1,0,0,1-9.41-2.19,40.88,40.88,0,0,1-16-10.45,40.75,40.75,0,0,1-11.27-26l-.1-2.4.09-1.9.19-3.76c.37-5,.27-10,1.08-15L61,432.84c2.18-8.07,3.47-14.4,5.08-18.91s2.59-7.52,3.07-9.29A95.72,95.72,0,0,1,73,393.08c1.37-3.59,2.51-7,3.74-10,.3-1.05-2.63,4.46-5,9.31-6.3,12-10.63,26.07-13.93,40.6l-1.68,11.1-.82,5.57c-.17,1.87-.21,3.75-.32,5.62l-.53,11.21a43,43,0,0,0,.25,6.89,44.83,44.83,0,0,0,1.5,7.31,44,44,0,0,0,8.45,15.77A43,43,0,0,0,71,502.5c2.51,1.62.09.29-4.71-5.08-2.78-3.29-.29-.77-.21-.92a43.54,43.54,0,0,0,25.65,14.3,32.57,32.57,0,0,0,4.5.56l2.13.13,1.53,0,5.28.16,9,.3,62-.65,8.07-.17c13.39-.71-19.35-1.63-53.52-1.62Zm321.92-4.92-6-.55-47.93,0c-22.23-.15-37,.12-55,.26l-85.6.51-10.35.63c-1.33.12.23.28,3.08.39,8.82.33,25.12.62,27.16,1,4.2.7,28.08.48,44.36.6,13.83.1,21.73-.05,27.18-.37,5.69-.33,14.56-.66,24.83-.93,4.19-.11,19.29-.18,23.29-.11,13.3.25,26.65.28,39.37.24l9.42,0,4.6,0c1.55,0,2.87,0,4.91-.11a37.93,37.93,0,0,0,20-7,36.53,36.53,0,0,1-16.13,5.5A37,37,0,0,1,424.35,504.64ZM245,370.48c-1.12-.81-.06-.39,0-.53l12.8,7.71,4.39,2.83,11.18-6.2,25.51-16.07c1.24-.78,2.6-1.68,3.08-2,4.89-3.77-8.43,3.16-21.84,11.22l-17.93,10.74-37.76-22.87c-6.13-3.74-9.48-5.65-11-6.19-3.48-1.25-6.72-2.36-9.43-3.14-.45-.13,1.72,1.39,3.63,2.65,9.53,6.28,21,12.83,31.7,19.21C247.54,372.7,248.7,373.17,245,370.48Zm2.42-76.26-1-.13A10.08,10.08,0,0,0,247.4,294.22ZM366.8,165.38a46.3,46.3,0,0,0-1.12-8.62,40.22,40.22,0,0,0-2.87-8.11,36.85,36.85,0,0,0-21.23-19.24,39.66,39.66,0,0,0-13.45-2.16l-10.18,0,8.24,1a55,55,0,0,1,8.05,1.53A35.55,35.55,0,0,1,349.59,136a35.13,35.13,0,0,1,11.14,12.84,36.35,36.35,0,0,1,3.42,10.31,51.1,51.1,0,0,1,.63,9.06c.08,5.19.15,10.07.23,15.44q.06,6,.13,12.2c-.29,4.35-.11,8.81-.84,13.25a105.62,105.62,0,0,1-7,27c-.37,1.48-1.72,4.44-2.27,6.2-.27.81.31,0,1.22-1.59,2.92-4.85,6.61-14.74,7.1-16,1.63-2.36,4.83-17.65,4.74-28.28a142.52,142.52,0,0,0-.33-16.23C367.4,176.77,367.08,171.49,366.8,165.38ZM154.22,204l-.74-11.34c-.3-7.68-.7-9.82-1.08-7.64-.19,1.09-.38,3.26-.55,6.35s-.08,8,.21,13.32c1.92,23.18,12.25,47.13,28.37,65.06a114,114,0,0,0,14.17,13.31l1.78,1.23a122.54,122.54,0,0,1-20.81-22.06,122.63,122.63,0,0,1-14.06-26.51,31.84,31.84,0,0,1-1.39-3.4,32.36,32.36,0,0,0,1.71,3.27A121.93,121.93,0,0,1,154.22,204Z"/></svg>