<svg width="28" height="28" viewBox="0 0 28 28" fill="none" xmlns="http://www.w3.org/2000/svg">
<path d="M19.6877 17.0042H18.4666L18.0338 16.5869C19.5486 14.8249 20.4605 12.5373 20.4605 10.0489C20.4605 4.50001 15.9627 0.00219727 10.4138 0.00219727C4.865 0.00219727 0.367188 4.50001 0.367188 10.0489C0.367188 15.5977 4.865 20.0955 10.4138 20.0955C12.9023 20.0955 15.1899 19.1836 16.9519 17.6688L17.3692 18.1016V19.3227L25.0974 27.0354L27.4004 24.7324L19.6877 17.0042ZM10.4138 17.0042C6.5652 17.0042 3.45847 13.8975 3.45847 10.0489C3.45847 6.20021 6.5652 3.09348 10.4138 3.09348C14.2625 3.09348 17.3692 6.20021 17.3692 10.0489C17.3692 13.8975 14.2625 17.0042 10.4138 17.0042Z" fill="black" fill-opacity="0.54"/>
</svg>
